<svg width="78" height="74" viewBox="0 0 78 74" fill="none" xmlns="http://www.w3.org/2000/svg">
<path d="M24.7762 55.2692L38.6362 42.1292L52.4962 55.2692L57.8862 50.1592L44.0262 37.0192L57.8862 23.8792L52.4962 18.7692L38.6362 31.9092L24.7762 18.7692L19.3862 23.8792L33.2462 37.0192L19.3862 50.1592L24.7762 55.2692ZM38.6362 73.5191C33.3104 73.5191 28.3054 72.5604 23.6212 70.643C18.9371 68.7255 14.8625 66.1255 11.3975 62.8429C7.93248 59.5603 5.19 55.6974 3.17003 51.2542C1.15007 46.8109 0.138802 42.0659 0.136235 37.0192C0.133669 31.9724 1.14493 27.2274 3.17003 22.7842C5.19513 18.3409 7.93761 14.478 11.3975 11.1954C14.8573 7.91285 18.9319 5.31283 23.6212 3.39536C28.3105 1.4779 33.3155 0.519165 38.6362 0.519165C43.9569 0.519165 48.9619 1.4779 53.6512 3.39536C58.3405 5.31283 62.4151 7.91285 65.8749 11.1954C69.3348 14.478 72.0786 18.3409 74.1062 22.7842C76.1339 27.2274 77.1439 31.9724 77.1362 37.0192C77.1285 42.0659 76.1172 46.8109 74.1024 51.2542C72.0876 55.6974 69.3451 59.5603 65.8749 62.8429C62.4048 66.1255 58.3302 68.7267 53.6512 70.6466C48.9722 72.5665 43.9672 73.524 38.6362 73.5191ZM38.6362 66.2192C47.2345 66.2192 54.5174 63.3904 60.4849 57.7329C66.4524 52.0754 69.4362 45.1708 69.4362 37.0192C69.4362 28.8675 66.4524 21.9629 60.4849 16.3054C54.5174 10.6479 47.2345 7.81916 38.6362 7.81916C30.0379 7.81916 22.755 10.6479 16.7875 16.3054C10.82 21.9629 7.83623 28.8675 7.83623 37.0192C7.83623 45.1708 10.82 52.0754 16.7875 57.7329C22.755 63.3904 30.0379 66.2192 38.6362 66.2192Z" fill="black"/>
</svg>
